<mxfile host="app.diagrams.net" modified="2023-04-24T18:20:09.307Z" agent="Mozilla/5.0 (Macintosh; Intel Mac OS X 10_15_7) AppleWebKit/537.36 (KHTML, like Gecko) Chrome/112.0.0.0 Safari/537.36" etag="5oWGGkdFo31C2n34pILq" version="21.1.5" type="github" pages="2">
  <diagram name="Component Diagram" id="cRDbK9eYe8UcyhCUnPsH">
    <mxGraphModel dx="1026" dy="636" grid="1" gridSize="10" guides="1" tooltips="1" connect="1" arrows="1" fold="1" page="1" pageScale="1" pageWidth="850" pageHeight="1100" math="0" shadow="0">
      <root>
        <mxCell id="0" />
        <mxCell id="1" parent="0" />
        <mxCell id="WAWfPX1g_GacfLOxUS-W-1" style="edgeStyle=orthogonalEdgeStyle;rounded=0;orthogonalLoop=1;jettySize=auto;html=1;entryX=0.5;entryY=0;entryDx=0;entryDy=0;" edge="1" parent="1" source="oDOGdpad-vqsCHCc3Da3-1" target="oDOGdpad-vqsCHCc3Da3-2">
          <mxGeometry relative="1" as="geometry" />
        </mxCell>
        <mxCell id="WAWfPX1g_GacfLOxUS-W-21" style="edgeStyle=orthogonalEdgeStyle;rounded=0;orthogonalLoop=1;jettySize=auto;html=1;entryX=0;entryY=0.5;entryDx=0;entryDy=0;" edge="1" parent="1" source="oDOGdpad-vqsCHCc3Da3-1" target="WAWfPX1g_GacfLOxUS-W-20">
          <mxGeometry relative="1" as="geometry" />
        </mxCell>
        <mxCell id="oDOGdpad-vqsCHCc3Da3-1" value="App" style="rounded=1;whiteSpace=wrap;html=1;" parent="1" vertex="1">
          <mxGeometry x="365" y="90" width="120" height="60" as="geometry" />
        </mxCell>
        <mxCell id="WAWfPX1g_GacfLOxUS-W-2" style="edgeStyle=orthogonalEdgeStyle;rounded=0;orthogonalLoop=1;jettySize=auto;html=1;entryX=0.5;entryY=0;entryDx=0;entryDy=0;" edge="1" parent="1" source="oDOGdpad-vqsCHCc3Da3-2" target="oDOGdpad-vqsCHCc3Da3-3">
          <mxGeometry relative="1" as="geometry" />
        </mxCell>
        <mxCell id="WAWfPX1g_GacfLOxUS-W-4" style="edgeStyle=orthogonalEdgeStyle;rounded=0;orthogonalLoop=1;jettySize=auto;html=1;" edge="1" parent="1" source="oDOGdpad-vqsCHCc3Da3-2" target="WAWfPX1g_GacfLOxUS-W-3">
          <mxGeometry relative="1" as="geometry" />
        </mxCell>
        <mxCell id="WAWfPX1g_GacfLOxUS-W-31" style="edgeStyle=orthogonalEdgeStyle;rounded=0;orthogonalLoop=1;jettySize=auto;html=1;entryX=0.5;entryY=0;entryDx=0;entryDy=0;" edge="1" parent="1" source="oDOGdpad-vqsCHCc3Da3-2" target="WAWfPX1g_GacfLOxUS-W-29">
          <mxGeometry relative="1" as="geometry" />
        </mxCell>
        <mxCell id="WAWfPX1g_GacfLOxUS-W-32" style="edgeStyle=orthogonalEdgeStyle;rounded=0;orthogonalLoop=1;jettySize=auto;html=1;entryX=0.5;entryY=0;entryDx=0;entryDy=0;" edge="1" parent="1" target="WAWfPX1g_GacfLOxUS-W-30">
          <mxGeometry relative="1" as="geometry">
            <mxPoint x="485" y="240" as="sourcePoint" />
            <Array as="points">
              <mxPoint x="485" y="220" />
              <mxPoint x="850" y="220" />
            </Array>
          </mxGeometry>
        </mxCell>
        <mxCell id="oDOGdpad-vqsCHCc3Da3-2" value="RouteList" style="rounded=1;whiteSpace=wrap;html=1;" parent="1" vertex="1">
          <mxGeometry x="365" y="190" width="120" height="60" as="geometry" />
        </mxCell>
        <mxCell id="WAWfPX1g_GacfLOxUS-W-7" style="edgeStyle=orthogonalEdgeStyle;rounded=0;orthogonalLoop=1;jettySize=auto;html=1;entryX=0.5;entryY=0;entryDx=0;entryDy=0;" edge="1" parent="1" source="oDOGdpad-vqsCHCc3Da3-3" target="WAWfPX1g_GacfLOxUS-W-5">
          <mxGeometry relative="1" as="geometry" />
        </mxCell>
        <mxCell id="WAWfPX1g_GacfLOxUS-W-8" style="edgeStyle=orthogonalEdgeStyle;rounded=0;orthogonalLoop=1;jettySize=auto;html=1;entryX=0.5;entryY=0;entryDx=0;entryDy=0;" edge="1" parent="1" source="oDOGdpad-vqsCHCc3Da3-3" target="WAWfPX1g_GacfLOxUS-W-6">
          <mxGeometry relative="1" as="geometry" />
        </mxCell>
        <mxCell id="WAWfPX1g_GacfLOxUS-W-10" style="edgeStyle=orthogonalEdgeStyle;rounded=0;orthogonalLoop=1;jettySize=auto;html=1;entryX=0.5;entryY=0;entryDx=0;entryDy=0;" edge="1" parent="1" source="oDOGdpad-vqsCHCc3Da3-3" target="WAWfPX1g_GacfLOxUS-W-9">
          <mxGeometry relative="1" as="geometry" />
        </mxCell>
        <mxCell id="oDOGdpad-vqsCHCc3Da3-3" value="RecipesHome" style="rounded=1;whiteSpace=wrap;html=1;" parent="1" vertex="1">
          <mxGeometry x="165" y="290" width="120" height="60" as="geometry" />
        </mxCell>
        <mxCell id="WAWfPX1g_GacfLOxUS-W-13" style="edgeStyle=orthogonalEdgeStyle;rounded=0;orthogonalLoop=1;jettySize=auto;html=1;entryX=1;entryY=0.5;entryDx=0;entryDy=0;" edge="1" parent="1" source="WAWfPX1g_GacfLOxUS-W-3" target="WAWfPX1g_GacfLOxUS-W-9">
          <mxGeometry relative="1" as="geometry" />
        </mxCell>
        <mxCell id="WAWfPX1g_GacfLOxUS-W-17" style="edgeStyle=orthogonalEdgeStyle;rounded=0;orthogonalLoop=1;jettySize=auto;html=1;entryX=0.5;entryY=0;entryDx=0;entryDy=0;" edge="1" parent="1" source="WAWfPX1g_GacfLOxUS-W-3" target="WAWfPX1g_GacfLOxUS-W-14">
          <mxGeometry relative="1" as="geometry" />
        </mxCell>
        <mxCell id="WAWfPX1g_GacfLOxUS-W-18" style="edgeStyle=orthogonalEdgeStyle;rounded=0;orthogonalLoop=1;jettySize=auto;html=1;entryX=0.5;entryY=0;entryDx=0;entryDy=0;" edge="1" parent="1" source="WAWfPX1g_GacfLOxUS-W-3" target="WAWfPX1g_GacfLOxUS-W-15">
          <mxGeometry relative="1" as="geometry" />
        </mxCell>
        <mxCell id="WAWfPX1g_GacfLOxUS-W-19" style="edgeStyle=orthogonalEdgeStyle;rounded=0;orthogonalLoop=1;jettySize=auto;html=1;" edge="1" parent="1" source="WAWfPX1g_GacfLOxUS-W-3" target="WAWfPX1g_GacfLOxUS-W-16">
          <mxGeometry relative="1" as="geometry" />
        </mxCell>
        <mxCell id="WAWfPX1g_GacfLOxUS-W-23" style="edgeStyle=orthogonalEdgeStyle;rounded=0;orthogonalLoop=1;jettySize=auto;html=1;entryX=0.5;entryY=0;entryDx=0;entryDy=0;" edge="1" parent="1" source="WAWfPX1g_GacfLOxUS-W-3" target="WAWfPX1g_GacfLOxUS-W-22">
          <mxGeometry relative="1" as="geometry" />
        </mxCell>
        <mxCell id="WAWfPX1g_GacfLOxUS-W-3" value="Recipe" style="rounded=1;whiteSpace=wrap;html=1;" vertex="1" parent="1">
          <mxGeometry x="485" y="290" width="120" height="60" as="geometry" />
        </mxCell>
        <mxCell id="WAWfPX1g_GacfLOxUS-W-5" value="RecipesSearch" style="rounded=1;whiteSpace=wrap;html=1;" vertex="1" parent="1">
          <mxGeometry x="165" y="390" width="120" height="60" as="geometry" />
        </mxCell>
        <mxCell id="WAWfPX1g_GacfLOxUS-W-12" style="edgeStyle=orthogonalEdgeStyle;rounded=0;orthogonalLoop=1;jettySize=auto;html=1;entryX=0.5;entryY=0;entryDx=0;entryDy=0;" edge="1" parent="1" source="WAWfPX1g_GacfLOxUS-W-6" target="WAWfPX1g_GacfLOxUS-W-11">
          <mxGeometry relative="1" as="geometry" />
        </mxCell>
        <mxCell id="WAWfPX1g_GacfLOxUS-W-6" value="RecipesList" style="rounded=1;whiteSpace=wrap;html=1;" vertex="1" parent="1">
          <mxGeometry x="10" y="390" width="120" height="60" as="geometry" />
        </mxCell>
        <mxCell id="WAWfPX1g_GacfLOxUS-W-25" style="edgeStyle=orthogonalEdgeStyle;rounded=0;orthogonalLoop=1;jettySize=auto;html=1;entryX=0.5;entryY=0;entryDx=0;entryDy=0;" edge="1" parent="1" source="WAWfPX1g_GacfLOxUS-W-9" target="WAWfPX1g_GacfLOxUS-W-24">
          <mxGeometry relative="1" as="geometry" />
        </mxCell>
        <mxCell id="WAWfPX1g_GacfLOxUS-W-28" style="edgeStyle=orthogonalEdgeStyle;rounded=0;orthogonalLoop=1;jettySize=auto;html=1;" edge="1" parent="1" source="WAWfPX1g_GacfLOxUS-W-9" target="WAWfPX1g_GacfLOxUS-W-27">
          <mxGeometry relative="1" as="geometry" />
        </mxCell>
        <mxCell id="WAWfPX1g_GacfLOxUS-W-9" value="RecipeAddForm" style="rounded=1;whiteSpace=wrap;html=1;" vertex="1" parent="1">
          <mxGeometry x="320" y="390" width="120" height="60" as="geometry" />
        </mxCell>
        <mxCell id="WAWfPX1g_GacfLOxUS-W-11" value="RecipesListItem" style="rounded=1;whiteSpace=wrap;html=1;" vertex="1" parent="1">
          <mxGeometry x="10" y="490" width="120" height="60" as="geometry" />
        </mxCell>
        <mxCell id="WAWfPX1g_GacfLOxUS-W-14" value="RecipeItem" style="rounded=1;whiteSpace=wrap;html=1;" vertex="1" parent="1">
          <mxGeometry x="640" y="390" width="120" height="60" as="geometry" />
        </mxCell>
        <mxCell id="WAWfPX1g_GacfLOxUS-W-15" value="RecipeStep" style="rounded=1;whiteSpace=wrap;html=1;" vertex="1" parent="1">
          <mxGeometry x="800" y="390" width="120" height="60" as="geometry" />
        </mxCell>
        <mxCell id="WAWfPX1g_GacfLOxUS-W-16" value="RecipeNote" style="rounded=1;whiteSpace=wrap;html=1;" vertex="1" parent="1">
          <mxGeometry x="960" y="390" width="120" height="60" as="geometry" />
        </mxCell>
        <mxCell id="WAWfPX1g_GacfLOxUS-W-20" value="NavBar" style="rounded=1;whiteSpace=wrap;html=1;" vertex="1" parent="1">
          <mxGeometry x="530" y="90" width="120" height="60" as="geometry" />
        </mxCell>
        <mxCell id="WAWfPX1g_GacfLOxUS-W-22" value="RecipeSpeedDial" style="rounded=1;whiteSpace=wrap;html=1;" vertex="1" parent="1">
          <mxGeometry x="485" y="490" width="120" height="60" as="geometry" />
        </mxCell>
        <mxCell id="WAWfPX1g_GacfLOxUS-W-24" value="RecipeAddFormSpeedDial" style="rounded=1;whiteSpace=wrap;html=1;" vertex="1" parent="1">
          <mxGeometry x="230" y="590" width="120" height="60" as="geometry" />
        </mxCell>
        <mxCell id="WAWfPX1g_GacfLOxUS-W-27" value="AddIngredientDialog" style="rounded=1;whiteSpace=wrap;html=1;" vertex="1" parent="1">
          <mxGeometry x="400" y="590" width="120" height="60" as="geometry" />
        </mxCell>
        <mxCell id="WAWfPX1g_GacfLOxUS-W-29" value="SignupForm" style="rounded=1;whiteSpace=wrap;html=1;" vertex="1" parent="1">
          <mxGeometry x="630" y="240" width="120" height="60" as="geometry" />
        </mxCell>
        <mxCell id="WAWfPX1g_GacfLOxUS-W-30" value="LoginForm" style="rounded=1;whiteSpace=wrap;html=1;" vertex="1" parent="1">
          <mxGeometry x="790" y="240" width="120" height="60" as="geometry" />
        </mxCell>
      </root>
    </mxGraphModel>
  </diagram>
  <diagram id="Hk7V_8UxVhJRYsNevpUz" name="Signup/Login/Verification Steps">
    <mxGraphModel dx="1026" dy="636" grid="1" gridSize="10" guides="1" tooltips="1" connect="1" arrows="1" fold="1" page="1" pageScale="1" pageWidth="850" pageHeight="1100" math="0" shadow="0">
      <root>
        <mxCell id="0" />
        <mxCell id="1" parent="0" />
        <mxCell id="KYMu359FFGTH8fGwNw4F-5" style="edgeStyle=orthogonalEdgeStyle;rounded=0;orthogonalLoop=1;jettySize=auto;html=1;entryX=0.5;entryY=0;entryDx=0;entryDy=0;" edge="1" parent="1" source="KYMu359FFGTH8fGwNw4F-1" target="KYMu359FFGTH8fGwNw4F-4">
          <mxGeometry relative="1" as="geometry" />
        </mxCell>
        <mxCell id="KYMu359FFGTH8fGwNw4F-1" value="Sign up form submitted" style="rounded=1;whiteSpace=wrap;html=1;" vertex="1" parent="1">
          <mxGeometry x="365" y="80" width="120" height="60" as="geometry" />
        </mxCell>
        <mxCell id="KYMu359FFGTH8fGwNw4F-7" style="edgeStyle=orthogonalEdgeStyle;rounded=0;orthogonalLoop=1;jettySize=auto;html=1;entryX=0.5;entryY=0;entryDx=0;entryDy=0;" edge="1" parent="1" source="KYMu359FFGTH8fGwNw4F-4" target="KYMu359FFGTH8fGwNw4F-6">
          <mxGeometry relative="1" as="geometry" />
        </mxCell>
        <mxCell id="KYMu359FFGTH8fGwNw4F-11" style="edgeStyle=orthogonalEdgeStyle;rounded=0;orthogonalLoop=1;jettySize=auto;html=1;entryX=0.5;entryY=0;entryDx=0;entryDy=0;" edge="1" parent="1" source="KYMu359FFGTH8fGwNw4F-4" target="KYMu359FFGTH8fGwNw4F-10">
          <mxGeometry relative="1" as="geometry" />
        </mxCell>
        <mxCell id="KYMu359FFGTH8fGwNw4F-13" style="edgeStyle=orthogonalEdgeStyle;rounded=0;orthogonalLoop=1;jettySize=auto;html=1;entryX=0.5;entryY=0;entryDx=0;entryDy=0;" edge="1" parent="1" source="KYMu359FFGTH8fGwNw4F-4" target="KYMu359FFGTH8fGwNw4F-12">
          <mxGeometry relative="1" as="geometry" />
        </mxCell>
        <mxCell id="KYMu359FFGTH8fGwNw4F-4" value="POST request sent to /users/signup" style="rounded=1;whiteSpace=wrap;html=1;" vertex="1" parent="1">
          <mxGeometry x="500" y="180" width="120" height="60" as="geometry" />
        </mxCell>
        <mxCell id="KYMu359FFGTH8fGwNw4F-6" value="user created with is_verified = false" style="rounded=1;whiteSpace=wrap;html=1;" vertex="1" parent="1">
          <mxGeometry x="500" y="270" width="120" height="60" as="geometry" />
        </mxCell>
        <mxCell id="KYMu359FFGTH8fGwNw4F-10" value="verification email sent to provided email" style="rounded=1;whiteSpace=wrap;html=1;" vertex="1" parent="1">
          <mxGeometry x="230" y="270" width="120" height="60" as="geometry" />
        </mxCell>
        <mxCell id="KYMu359FFGTH8fGwNw4F-18" style="edgeStyle=orthogonalEdgeStyle;rounded=0;orthogonalLoop=1;jettySize=auto;html=1;entryX=0.5;entryY=0;entryDx=0;entryDy=0;" edge="1" parent="1" source="KYMu359FFGTH8fGwNw4F-12" target="KYMu359FFGTH8fGwNw4F-17">
          <mxGeometry relative="1" as="geometry" />
        </mxCell>
        <mxCell id="KYMu359FFGTH8fGwNw4F-12" value="jwt with username and is_verified status sent to frontend" style="rounded=1;whiteSpace=wrap;html=1;" vertex="1" parent="1">
          <mxGeometry x="365" y="270" width="120" height="60" as="geometry" />
        </mxCell>
        <mxCell id="KYMu359FFGTH8fGwNw4F-14" value="External" style="text;html=1;strokeColor=none;fillColor=none;align=center;verticalAlign=middle;whiteSpace=wrap;rounded=0;" vertex="1" parent="1">
          <mxGeometry x="260" y="10" width="60" height="30" as="geometry" />
        </mxCell>
        <mxCell id="KYMu359FFGTH8fGwNw4F-15" value="Front end" style="text;html=1;strokeColor=none;fillColor=none;align=center;verticalAlign=middle;whiteSpace=wrap;rounded=0;" vertex="1" parent="1">
          <mxGeometry x="395" y="10" width="60" height="30" as="geometry" />
        </mxCell>
        <mxCell id="KYMu359FFGTH8fGwNw4F-16" value="Backend/DB" style="text;html=1;strokeColor=none;fillColor=none;align=center;verticalAlign=middle;whiteSpace=wrap;rounded=0;" vertex="1" parent="1">
          <mxGeometry x="530" y="10" width="60" height="30" as="geometry" />
        </mxCell>
        <mxCell id="KYMu359FFGTH8fGwNw4F-25" style="edgeStyle=orthogonalEdgeStyle;rounded=0;orthogonalLoop=1;jettySize=auto;html=1;entryX=0.5;entryY=0;entryDx=0;entryDy=0;" edge="1" parent="1" source="KYMu359FFGTH8fGwNw4F-17" target="KYMu359FFGTH8fGwNw4F-24">
          <mxGeometry relative="1" as="geometry" />
        </mxCell>
        <mxCell id="KYMu359FFGTH8fGwNw4F-17" value="user gets &quot;logged in&quot; and added to localStorage" style="rounded=1;whiteSpace=wrap;html=1;" vertex="1" parent="1">
          <mxGeometry x="365" y="370" width="120" height="60" as="geometry" />
        </mxCell>
        <mxCell id="KYMu359FFGTH8fGwNw4F-21" style="edgeStyle=orthogonalEdgeStyle;rounded=0;orthogonalLoop=1;jettySize=auto;html=1;entryX=0.5;entryY=0;entryDx=0;entryDy=0;" edge="1" parent="1" source="KYMu359FFGTH8fGwNw4F-19" target="KYMu359FFGTH8fGwNw4F-20">
          <mxGeometry relative="1" as="geometry" />
        </mxCell>
        <mxCell id="KYMu359FFGTH8fGwNw4F-19" value="link clicked from verification email" style="rounded=1;whiteSpace=wrap;html=1;" vertex="1" parent="1">
          <mxGeometry x="230" y="560" width="120" height="60" as="geometry" />
        </mxCell>
        <mxCell id="KYMu359FFGTH8fGwNw4F-23" style="edgeStyle=orthogonalEdgeStyle;rounded=0;orthogonalLoop=1;jettySize=auto;html=1;entryX=0.5;entryY=0;entryDx=0;entryDy=0;" edge="1" parent="1" source="KYMu359FFGTH8fGwNw4F-20" target="KYMu359FFGTH8fGwNw4F-22">
          <mxGeometry relative="1" as="geometry" />
        </mxCell>
        <mxCell id="KYMu359FFGTH8fGwNw4F-20" value="load page to verify email address" style="rounded=1;whiteSpace=wrap;html=1;" vertex="1" parent="1">
          <mxGeometry x="365" y="650" width="120" height="60" as="geometry" />
        </mxCell>
        <mxCell id="KYMu359FFGTH8fGwNw4F-28" style="edgeStyle=orthogonalEdgeStyle;rounded=0;orthogonalLoop=1;jettySize=auto;html=1;entryX=0.5;entryY=0;entryDx=0;entryDy=0;" edge="1" parent="1" source="KYMu359FFGTH8fGwNw4F-22" target="KYMu359FFGTH8fGwNw4F-26">
          <mxGeometry relative="1" as="geometry" />
        </mxCell>
        <mxCell id="KYMu359FFGTH8fGwNw4F-29" style="edgeStyle=orthogonalEdgeStyle;rounded=0;orthogonalLoop=1;jettySize=auto;html=1;entryX=0.5;entryY=0;entryDx=0;entryDy=0;" edge="1" parent="1" source="KYMu359FFGTH8fGwNw4F-22" target="KYMu359FFGTH8fGwNw4F-27">
          <mxGeometry relative="1" as="geometry" />
        </mxCell>
        <mxCell id="KYMu359FFGTH8fGwNw4F-22" value="POST request sent to /users/verify" style="rounded=1;whiteSpace=wrap;html=1;" vertex="1" parent="1">
          <mxGeometry x="500" y="750" width="120" height="60" as="geometry" />
        </mxCell>
        <mxCell id="KYMu359FFGTH8fGwNw4F-24" value="redirect to &quot;check your email and click link&quot; page" style="rounded=1;whiteSpace=wrap;html=1;" vertex="1" parent="1">
          <mxGeometry x="365" y="470" width="120" height="60" as="geometry" />
        </mxCell>
        <mxCell id="KYMu359FFGTH8fGwNw4F-26" value="set is_verified for the user to &quot;true&quot;" style="rounded=1;whiteSpace=wrap;html=1;" vertex="1" parent="1">
          <mxGeometry x="500" y="850" width="120" height="60" as="geometry" />
        </mxCell>
        <mxCell id="KYMu359FFGTH8fGwNw4F-27" value="user gets logged in again with new verification" style="rounded=1;whiteSpace=wrap;html=1;" vertex="1" parent="1">
          <mxGeometry x="365" y="850" width="120" height="60" as="geometry" />
        </mxCell>
      </root>
    </mxGraphModel>
  </diagram>
</mxfile>
